<?xml version="1.0" encoding="UTF-8"?><svg id="Layer_1" xmlns="http://www.w3.org/2000/svg" xmlns:xlink="http://www.w3.org/1999/xlink" viewBox="0 0 227.89 84.98"><defs><style>.cls-1{fill:#2a312d;}.cls-2{fill:url(#linear-gradient);}</style><linearGradient id="linear-gradient" x1="209.86" y1="31.47" x2="228.75" y2="2.81" gradientUnits="userSpaceOnUse"><stop offset=".07" stop-color="#c28710"/><stop offset=".9" stop-color="#d9a31b"/><stop offset="1" stop-color="#dca71d"/></linearGradient></defs><a xlink:href="adient"><polygon id="fullLogo" class="cls-2" points="227.89 0 227.89 22.27 210.73 34.28 210.73 11.99 227.89 0"/></a><a xlink:href="86.54985"><path id="fullLogo-2" class="cls-1" d="M56.42,64.68l-1.18-.92-1.08,1.04c-2.27,2.18-7.24,3.38-14.01,3.38-7.69,0-16.24-2.43-24.05-6.83l-1.3-.75L0,70.97c14.51,11.23,28.02,14.01,39.6,14.01,15.74,0,21.35-5.9,21.35-11.43,0-3.56-1.52-6.54-4.53-8.87Z"/></a><a xlink:href="86.54985"><path id="fullLogo-3" class="cls-1" d="M112.34,17.29c8.05,0,14.88,2.51,20.87,7.68l.05,.04,13.96-9.77-.27-.31C138.96,5.69,127.36,.39,115.13,.39c-24.34,0-44.15,18.9-44.15,42.14,0,2.17,.18,4.34,.53,6.5-6.41-7.99-19.44-11.7-28.75-14.62l-2.14-.66c-9.02-2.79-14.5-5.19-14.5-10.8,0-3,3.28-6.42,11.94-6.42,6.89,0,13.46,1.86,21.29,6.01l.62,.33,14.43-10.08C61,3.24,49.49,.39,38.72,.39S19.75,2.65,13.99,6.91c-5.51,4.07-8.42,9.77-8.42,16.49,0,17.09,16.38,22.1,29.55,26.13,13.97,4.26,34.01,8.78,34.11,26.7h0c4.6-5.75,6.15-13.44,6.15-17.92h0c0-2.77,.19-5.54,.68-8.27,3.48-19.26,18.05-32.74,36.27-32.74Z"/></a><a xlink:href="86.54985"><path id="fullLogo-4" class="cls-1" d="M169.18,36.96V.02l-17.16,12.01v24.93h-27.78l-22.7,15.9h34.01c-1.97,5.58-7.46,15.4-21.58,15.4s-24.02-11.23-24.02-25.57c0-1.48,.1-2.88,.32-4.28l.72-4.68h0c-5.72,5.27-9.14,15.28-9.14,23.1,0,10.66,5.81,17.3,10.68,21,5.96,4.52,13.78,7.11,21.44,7.11,11.57,0,22-4.57,29.37-12.86,4-4.47,6.93-9.93,8.68-15.98v27.21h17.16v-30.43h41.55v30.43h17.16V36.96h-58.71Z"/></a></svg>